<svg xmlns="http://www.w3.org/2000/svg" xmlns:xlink="http://www.w3.org/1999/xlink" width="95" height="45" viewBox="30 300 139 67">
    <defs>
        <g>
            <linearGradient id="linearGradient25202">
                <stop offset="0" stop-color="gray"/>
                <stop offset=".5" stop-color="gray"/>
                <stop offset="1" stop-color="gray" stop-opacity="0"/>
            </linearGradient>
            <radialGradient id="radialGradient25208-2" cx="1201.38" cy="169.97" r="53" fx="1201.38" fy="169.97" gradientTransform="matrix(.63977 0 0 .47532 432.77 62.047)" gradientUnits="userSpaceOnUse" xlink:href="#linearGradient25202"/>
        </g>
        <g>
            <circle id="earth" cx="480" cy="140.36" r="12" fill="#2b75cc"/>
            <circle id="earth2" cx="1152.01" cy="132.37" r="12" fill="#2b75cc"/>
            <circle id="failure" cx="99" cy="329.4" r="4" fill="#d12f2f"/>
            <g id="ISS" transform="translate(-223 369)">
                <path fill="gray" d="M302-53.6v38h4v-18h2v18h4v-18h6v1h2v3h4v-3h2v-1h6v18h4v-18h2v18h4v-38h-4v18h-2v-18h-4v18h-6v-2h-8v2h-6v-18h-4v18h-2v-18h-4z"/>
            </g>
            <g id="LEO" transform="translate(-381 192)">
                <use xlink:href="#earth"/>
                <path fill="none" stroke="#011b2d" stroke-linecap="round" stroke-linejoin="round" stroke-width="4" d="M496 140.36a16 4 0 0 1-8 3.47 16 4 0 0 1-16 0 16 4 0 0 1-8-3.47"/>
                <path fill="none" stroke="gray" stroke-linecap="round" stroke-linejoin="round" stroke-width="2" d="M493.86 138.36a16 4 0 0 1-3.58 5.07 16 4 0 0 1-20.56 0 16 4 0 0 1-3.58-5.07"/>
            </g>
            <g id="GTO" transform="translate(-613 319)">
                <g transform="translate(-440.012 -118.965)">
                    <ellipse cx="1152.01" cy="132.37" fill="none" stroke="gray" stroke-linecap="round" stroke-linejoin="round" stroke-width="2" rx="36.01" ry="8.01"/>
                    <use xlink:href="#earth2"/>
                    <path fill="none" stroke="#011e37" stroke-linecap="round" stroke-linejoin="round" stroke-width="4" d="M1188.02 132.37a36 8 0 0 1-26.7 7.74 36 8 0 0 1-40.5-3.7"/>
                    <path fill="none" stroke="gray" stroke-linecap="round" stroke-linejoin="round" stroke-width="2" d="M1183.2 128.37a36 8 0 0 1-8.04 10.14 36 8 0 0 1-46.3 0 36 8 0 0 1-8.04-10.1"/>
                    <circle cx="1136" cy="139.37" r="4" fill="gray"/>
                </g>
            </g>
            <g id="PO" transform="translate(-183 319)">
                <g transform="rotate(-90 318.268 179.835)">
                    <path fill="none" stroke="gray" stroke-linecap="round" stroke-linejoin="round" stroke-width="2" d="M496 140.36a16 4 0 0 1-8-3.46 16 4 0 0 1-16 0 16 4 0 0 1-8 3.46"/>
                    <use xlink:href="#earth"/>
                    <path fill="none" stroke="#011e37" stroke-linecap="round" stroke-linejoin="round" stroke-width="4" d="M496 140.36a16 4 0 0 1-8 3.47 16 4 0 0 1-16 0 16 4 0 0 1-8-3.47"/>
                    <path fill="none" stroke="gray" stroke-linecap="round" stroke-linejoin="round" stroke-width="2" d="M493.86 138.36a16 4 0 0 1-3.58 5.07 16 4 0 0 1-20.56 0 16 4 0 0 1-3.58-5.07"/>
                </g>
            </g>
        </g>
    </defs>
</svg>
